:SAMPLES-PER-SECOND 30
:FULLY-SPECIFIED
:DEGREES
389
root  8.61492 38.1257 11.3483 -7.86497 -73.3401 8.40721
RightUpLeg  12.224 -11.2288 -6.2558
RightLeg  35.4981 -0.894304 -0.977636
RightFoot  -2.76613 -0.631979 8.96424
RightToes  0.00048216 0.542163 -0.142577
Spine  2.40243 5.08194 8.16242
Spine1  12.7794 8.42939 -9.4394
HEad  0.32141 -11.5281 4.65495
LeftShoulder1  6.63806 -10.7642 -40.2544
LeftArm  -26.2294 45.7673 -11.8953
LeftForeArm  77.2967 -78.6194 -101.494
LeftHand  -0.25398 0.0180481 5.50724
RightShoulder  5.54739 9.59291 36.3665
RightArm  11.578 -3.441 38.1897
RightForeArm  8.98491 76.501 64.1426
RightHand  1.18341 -14.4575 -15.7845
LeftUpLeg  -29.4148 14.9806 -8.46492
LeftLeg  23.9642 1.71959 1.17521
LeftFoot  2.49106 -0.630072 5.07223
LeftToes  1.06246e-005 4.65855e-005 -8.18505e-006
390
root  6.93673 38.2737 11.962 -15.2359 -73.0467 14.4344
RightUpLeg  6.23161 -8.57164 -7.47284
RightLeg  48.7697 -2.74835 -3.68009
RightFoot  8.17166 -0.684385 4.24966
RightToes  0.00048216 0.542163 -0.142577
Spine  5.02613 4.59496 5.45145
Spine1  12.0159 7.93164 -9.07096
HEad  1.91372 -11.3187 4.65866
LeftShoulder1  6.69844 -10.7949 -40.5579
LeftArm  -26.0622 45.1813 -12.4712
LeftForeArm  74.5524 -78.7556 -98.1433
LeftHand  -0.25398 0.0180481 5.50724
RightShoulder  5.70571 9.83156 36.785
RightArm  11.695 -2.68941 37.1837
RightForeArm  4.4662 76.0691 60.8238
RightHand  1.161 -13.9185 -16.4266
LeftUpLeg  -25.5475 16.2393 -9.43774
LeftLeg  26.2953 2.03793 1.43313
LeftFoot  -1.56325 -0.419253 4.98603
LeftToes  1.06246e-005 4.65855e-005 -8.18505e-006
391
root  5.36814 38.4276 12.5573 -21.6587 -71.8245 19.3171
RightUpLeg  -0.144789 -7.80467 -9.31353
RightLeg  60.3373 -2.95997 -6.10868
RightFoot  11.7945 0.00627502 0.268865
RightToes  0.00048216 0.542163 -0.142577
Spine  7.89801 3.74719 2.53375
Spine1  11.1169 6.65255 -8.12531
HEad  3.53069 -10.67 4.17301
LeftShoulder1  6.79997 -10.8951 -40.9144
LeftArm  -25.4714 44.2869 -12.9493
LeftForeArm  69.8435 -78.8521 -93.3003
LeftHand  -0.25398 0.0180481 5.50724
RightShoulder  5.72441 9.8583 36.8369
RightArm  11.739 -1.78922 36.423
RightForeArm  0.804071 75.6447 57.9649
RightHand  1.1441 -13.6339 -16.7323
LeftUpLeg  -20.4455 15.6138 -10.2601
LeftLeg  26.7186 2.2605 1.57738
LeftFoot  -5.40767 -0.205102 4.59684
LeftToes  1.06246e-005 4.65855e-005 -8.18505e-006
392
root  3.78307 38.7719 13.1681 -24.7913 -70.5882 20.7719
RightUpLeg  -5.70173 -8.37999 -10.5344
RightLeg  66.6743 -2.89491 -7.98343
RightFoot  9.66027 0.306018 -1.26936
RightToes  0.00048216 0.542163 -0.142577
Spine  10.2165 2.85468 1.02025
Spine1  10.7528 5.38225 -7.16356
HEad  4.72416 -10.2627 3.84467
LeftShoulder1  7.0098 -11.1846 -41.3826
LeftArm  -24.3406 42.7359 -13.089
LeftForeArm  62.9944 -78.8469 -86.4759
LeftHand  -0.25398 0.0180481 5.50724
RightShoulder  5.64577 9.73435 36.6495
RightArm  11.0758 -1.44966 35.8668
RightForeArm  -1.02402 75.3733 56.27
RightHand  1.13121 -13.6856 -16.4691
LeftUpLeg  -14.6031 14.2467 -10.2009
LeftLeg  25.1515 2.72284 1.72939
LeftFoot  -6.9993 -0.124364 4.40209
LeftToes  1.06246e-005 4.65855e-005 -8.18505e-006
393
root  2.14261 39.2361 13.7869 -26.3457 -71.2695 20.806
RightUpLeg  -10.7233 -7.98847 -10.1893
RightLeg  66.9994 -2.94299 -8.29993
RightFoot  6.49747 0.114565 -0.439191
RightToes  0.00048216 0.542163 -0.142577
Spine  11.314 2.67722 1.48651
Spine1  11.57 5.26317 -7.12875
HEad  5.7008 -10.2486 3.7406
LeftShoulder1  7.26753 -11.5643 -41.8591
LeftArm  -23.13 40.6969 -13.2724
LeftForeArm  56.0009 -78.6833 -79.1623
LeftHand  -0.25398 0.0180481 5.50724
RightShoulder  5.53851 9.59365 36.2984
RightArm  9.62804 -1.95551 35.3832
RightForeArm  -1.07932 75.3694 56.2576
RightHand  1.16576 -14.1173 -16.133
LeftUpLeg  -8.66602 14.9027 -8.92616
LeftLeg  22.6465 3.39175 1.88987
LeftFoot  -7.91295 -0.0830712 4.36671
LeftToes  1.06246e-005 4.65855e-005 -8.18505e-006
